<svg width="1280" height="44" viewBox="0 0 1280 44" fill="none" xmlns="http://www.w3.org/2000/svg">
<path fill-rule="evenodd" clip-rule="evenodd" d="M0 0L21.3333 5.86667C42.6667 11.7333 85.3333 23.4667 128 27.8667C170.667 32.2667 213.333 29.3333 256 27.1333C298.667 24.9333 341.333 23.4667 384 22C426.667 20.5333 469.333 19.0667 512 18.3333C554.667 17.6 597.333 17.6 640 19.8C682.667 22 725.333 26.4 768 27.1333C810.667 27.8667 853.333 24.9333 896 27.1333C938.667 29.3333 981.333 36.6667 1024 34.4667C1066.67 32.2667 1109.33 20.5333 1152 15.4C1194.67 10.2667 1237.33 11.7333 1258.67 12.4667L1280 13.2V44H1258.67C1237.33 44 1194.67 44 1152 44C1109.33 44 1066.67 44 1024 44C981.333 44 938.667 44 896 44C853.333 44 810.667 44 768 44C725.333 44 682.667 44 640 44C597.333 44 554.667 44 512 44C469.333 44 426.667 44 384 44C341.333 44 298.667 44 256 44C213.333 44 170.667 44 128 44C85.3333 44 42.6667 44 21.3333 44H0V0Z" fill="#F8F8F8"/>
</svg>
