<svg width="14" height="14" viewBox="0 0 14 14" fill="none" xmlns="http://www.w3.org/2000/svg">
<path fill-rule="evenodd" clip-rule="evenodd" d="M2.59563 0.906251C2.60539 0.906251 2.61518 0.906252 2.625 0.906252L11.4044 0.906251C11.8212 0.906231 12.1776 0.906215 12.4624 0.94214C12.7644 0.980241 13.0564 1.06581 13.2961 1.29078C13.5402 1.51971 13.6371 1.80535 13.6797 2.10253C13.7188 2.37553 13.7188 2.71498 13.7188 3.10224L13.7188 3.58757C13.7188 3.89289 13.7188 4.15684 13.696 4.37694C13.6714 4.61379 13.6178 4.836 13.4891 5.04933C13.3613 5.26106 13.1892 5.41475 12.9909 5.55252C12.8041 5.68231 12.5653 5.81668 12.2846 5.97472L10.4455 7.00997C10.0269 7.24562 9.88117 7.33047 9.78386 7.41496C9.56037 7.60898 9.43238 7.82426 9.37224 8.09399C9.34654 8.20929 9.34375 8.35451 9.34375 8.79559L9.34375 10.5031C9.34379 11.0664 9.34381 11.5446 9.28585 11.9122C9.22422 12.3032 9.08113 12.6781 8.70611 12.9127C8.33964 13.1419 7.93594 13.1208 7.54363 13.0277C7.16578 12.9379 6.70017 12.7559 6.14147 12.5374L6.08718 12.5162C5.82547 12.4139 5.59632 12.3244 5.4149 12.2307C5.21993 12.13 5.03887 12.0048 4.90035 11.8098C4.76026 11.6127 4.70409 11.4013 4.67905 11.1852C4.65621 10.9881 4.65623 10.7516 4.65625 10.4879L4.65625 8.79558C4.65625 8.35451 4.65347 8.20929 4.62776 8.09399C4.56762 7.82426 4.43964 7.60898 4.21615 7.41496C4.11884 7.33047 3.97308 7.24562 3.55446 7.00997L1.71544 5.97472C1.43468 5.81669 1.19596 5.68231 1.00912 5.55252C0.810777 5.41475 0.638693 5.26106 0.51092 5.04933C0.382178 4.836 0.328566 4.61379 0.30403 4.37694C0.281228 4.15684 0.281239 3.89289 0.281253 3.58757L0.281253 3.13416C0.281253 3.12348 0.281252 3.11284 0.281252 3.10223C0.281222 2.71498 0.281197 2.37553 0.320317 2.10253C0.362903 1.80535 0.459849 1.51972 0.703862 1.29078C0.943644 1.06581 1.23559 0.980241 1.53765 0.94214C1.82245 0.906215 2.17879 0.906231 2.59563 0.906251ZM1.65497 1.87227C1.44644 1.89857 1.38012 1.94182 1.34532 1.97447C1.31474 2.00316 1.2744 2.05366 1.24834 2.23552C1.21988 2.43409 1.21875 2.70543 1.21875 3.13416V3.5653C1.21875 3.89918 1.21933 4.11424 1.23654 4.28034C1.25257 4.43503 1.28008 4.50942 1.31359 4.56494C1.34806 4.62208 1.40531 4.68625 1.54396 4.78256C1.69004 4.88403 1.8896 4.99692 2.19371 5.16812L4.01435 6.19302C4.0314 6.20261 4.04819 6.21206 4.06473 6.22136C4.41392 6.41782 4.65174 6.55161 4.83075 6.70702C5.20035 7.02789 5.43748 7.41763 5.54279 7.88997C5.59398 8.11954 5.59389 8.37695 5.59377 8.7403C5.59376 8.75846 5.59375 8.77689 5.59375 8.79558V10.464C5.59375 10.7591 5.59448 10.9406 5.61032 11.0773C5.62464 11.2008 5.6472 11.2424 5.66457 11.2668C5.68349 11.2934 5.72098 11.3336 5.84502 11.3977C5.97778 11.4662 6.16068 11.5384 6.44952 11.6513C7.05015 11.8861 7.45415 12.0428 7.76026 12.1155C8.05939 12.1866 8.15796 12.1497 8.20896 12.1178C8.25141 12.0913 8.31705 12.0373 8.35979 11.7662C8.40486 11.4804 8.40625 11.0772 8.40625 10.464V8.79559C8.40625 8.77689 8.40625 8.75847 8.40624 8.74031C8.40612 8.37695 8.40603 8.11954 8.45721 7.88997C8.56253 7.41763 8.79966 7.02789 9.16926 6.70702C9.34826 6.55161 9.58607 6.41782 9.93525 6.22138C9.9518 6.21207 9.9686 6.20262 9.98566 6.19301L11.8063 5.16812C12.1104 4.99692 12.31 4.88403 12.456 4.78256C12.5947 4.68625 12.6519 4.62208 12.6864 4.56495C12.7199 4.50942 12.7474 4.43503 12.7635 4.28034C12.7807 4.11424 12.7813 3.89918 12.7813 3.5653V3.13416C12.7813 2.70543 12.7801 2.43409 12.7517 2.23552C12.7256 2.05366 12.6853 2.00316 12.6547 1.97447C12.6199 1.94182 12.5536 1.89857 12.345 1.87227C12.1259 1.84463 11.8294 1.84375 11.375 1.84375H2.625C2.17061 1.84375 1.87409 1.84463 1.65497 1.87227Z" fill="#F8F8F8"/>
</svg>
